<svg width="42" height="10" viewBox="0 0 42 10" fill="none" xmlns="http://www.w3.org/2000/svg">
<path d="M1 5C1 2.79086 2.79086 1 5 1H37C39.2091 1 41 2.79086 41 5C41 7.20914 39.2091 9 37 9H5C2.79086 9 1 7.20914 1 5Z" fill="#B7E1E3"/>
<path d="M19.696 4.27273L20.3494 5.38778L21.0028 4.27273H21.4858L20.6051 5.63636L21.4858 7H21.0028L20.3494 5.94176L19.696 7H19.2131L20.0795 5.63636L19.2131 4.27273H19.696Z" fill="white"/>
<path d="M22.0837 8.02273V4.27273H22.4885V4.70597H22.5383C22.569 4.65862 22.6117 4.59825 22.6661 4.52486C22.7217 4.45028 22.801 4.384 22.904 4.32599C23.0082 4.26681 23.1491 4.23722 23.3266 4.23722C23.5563 4.23722 23.7587 4.29463 23.9339 4.40945C24.1091 4.52427 24.2458 4.68703 24.344 4.89773C24.4423 5.10843 24.4914 5.35701 24.4914 5.64347C24.4914 5.93229 24.4423 6.18265 24.344 6.39453C24.2458 6.60523 24.1096 6.76858 23.9356 6.88459C23.7616 6.99941 23.561 7.05682 23.3337 7.05682C23.1585 7.05682 23.0183 7.02782 22.9129 6.96982C22.8076 6.91063 22.7265 6.84375 22.6697 6.76918C22.6128 6.69342 22.569 6.63068 22.5383 6.58097H22.5028V8.02273H22.0837ZM22.4956 5.63636C22.4956 5.84233 22.5258 6.02403 22.5862 6.18146C22.6466 6.33771 22.7348 6.46023 22.8508 6.54901C22.9668 6.6366 23.1088 6.6804 23.2769 6.6804C23.4521 6.6804 23.5983 6.63423 23.7155 6.5419C23.8338 6.44839 23.9226 6.32292 23.9818 6.16548C24.0422 6.00687 24.0724 5.83049 24.0724 5.63636C24.0724 5.4446 24.0428 5.27178 23.9836 5.1179C23.9256 4.96283 23.8374 4.84032 23.719 4.75036C23.6018 4.65921 23.4545 4.61364 23.2769 4.61364C23.1064 4.61364 22.9632 4.65684 22.8472 4.74325C22.7312 4.82848 22.6436 4.94803 22.5844 5.10192C22.5252 5.25462 22.4956 5.43276 22.4956 5.63636Z" fill="white"/>
<path d="M37 0.9H5C2.73563 0.9 0.9 2.73563 0.9 5C0.9 7.26437 2.73563 9.1 5 9.1H37C39.2644 9.1 41.1 7.26437 41.1 5C41.1 2.73563 39.2644 0.9 37 0.9Z" stroke="black" stroke-width="0.2"/>
</svg>
